<?xml version="1.0" encoding="UTF-8"?><svg id="Ebene_2" xmlns="http://www.w3.org/2000/svg" viewBox="0 0 309.6 336.03"><defs><style>.cls-1{fill:#0032a6;}.cls-2{fill:#ed3d7c;}</style></defs><g id="Logos_Schrift_Kopie"><path class="cls-2" d="M309.6,215.88v-41c0-2.36-1.59-3.54-2.27-3.93-.68-.39-2.49-1.18-4.54,0l-130.34,75.25c-10.89,6.29-24.42,6.29-35.32,0l-30.08-17.37c-6.82-3.94-11.05-11.27-11.05-19.14v-.7c0-7.87,4.23-15.2,11.05-19.14l90.09-52.01c3.49-2.01,5.66-5.77,5.66-9.8s-2.17-7.78-5.66-9.8l-30.08-17.37c-7.57-4.37-16.97-4.37-24.53,0L4.4,180.63C1.69,182.2,0,185.11,0,188.24v63.18c0,4.03,2.17,7.78,5.66,9.8l112.7,65.07c22.48,12.98,50.4,12.98,72.87,0l81.93-47.31c22.47-12.98,36.43-37.16,36.43-63.1Z"/><path class="cls-1" d="M112.45,219.49l30.08,17.37c7.57,4.37,16.96,4.37,24.53,0l138.14-79.75c2.71-1.57,4.4-4.48,4.4-7.62v-63.88c0-4.03-2.17-7.78-5.66-9.8L187.97,8.86c-20.46-11.81-45.88-11.81-66.35,0L33.17,59.93C12.71,71.74,0,93.76,0,117.39v45.47c0,2.36,1.59,3.54,2.27,3.93.68.39,2.49,1.18,4.54,0l130.34-75.25c5.45-3.14,11.55-4.72,17.66-4.72s12.21,1.57,17.66,4.72l30.08,17.37c6.82,3.94,11.05,11.27,11.05,19.14s-4.23,15.2-11.05,19.14l-90.09,52.01c-3.49,2.01-5.66,5.77-5.66,9.8v.7c0,4.03,2.17,7.78,5.66,9.8Z"/></g></svg>