<?xml version="1.0" encoding="UTF-8"?><svg id="Ebene_2" xmlns="http://www.w3.org/2000/svg" viewBox="0 0 309.6 336.03"><defs><style>.cls-1{fill:#fff;}</style></defs><g id="Logos_Schrift_Kopie"><path class="cls-1" d="M309.6,146.26v-60.65c0-4.03-2.17-7.78-5.66-9.8L187.97,8.86c-20.46-11.81-45.88-11.81-66.35,0L33.17,59.93C12.71,71.74,0,93.76,0,117.39v59.57h0s0,74.47,0,74.47c0,4.03,2.17,7.78,5.66,9.8l112.7,65.07c11.24,6.49,23.84,9.73,36.44,9.73s25.2-3.24,36.44-9.73l81.93-47.31c22.47-12.98,36.43-37.16,36.43-63.1v-69.62s0,0,0,0ZM269.17,272.06l-81.93,47.31c-9.81,5.67-21.03,8.66-32.44,8.66s-22.62-2.99-32.44-8.66L9.66,254.29c-1.03-.59-1.66-1.69-1.66-2.87v-73c0-3.77,2.01-7.25,5.27-9.14l126.57-73.07c4.52-2.61,9.7-3.99,14.96-3.99s10.43,1.38,14.96,3.99l29.74,17.17c3.57,2.06,6.41,5.26,7.76,9.15,2.71,7.83-.69,16.09-7.42,19.97l-90.09,52.01c-5.15,2.98-8.36,8.52-8.36,14.48v.7c0,5.97,3.19,11.49,8.36,14.47l30.08,17.37c4.53,2.62,9.71,4,14.97,4s10.43-1.38,14.96-4l123.65-71.39c3.64-2.1,8.19.53,8.19,4.73v41.01c0,23.1-12.43,44.63-32.43,56.18Z"/></g></svg>